<svg width="84" height="28" viewBox="0 0 84 28" fill="none" xmlns="http://www.w3.org/2000/svg">
<path fill-rule="evenodd" clip-rule="evenodd" d="M17.7075 10.0171C17.7075 7.6581 15.9572 6.01711 13.212 6.01711C10.4665 6.01711 8.71638 7.69224 8.71638 10.0855C8.71638 12.3761 10.4665 14.0171 13.1433 14.0171C15.923 14.0171 17.7075 12.3418 17.7075 10.0171ZM26.0465 0.888848V15.9316C26.0465 23.658 20.5215 28 11.4618 28C7.41235 28 3.7406 27.0086 1.75013 25.5727V19.5556C3.29434 20.8889 6.34866 22.2222 9.64301 22.2222C14.8249 22.2222 17.6731 19.8292 17.6731 15.0426V14.5299C16.0604 18.1198 13.2805 19.6239 9.54005 19.6239C3.60322 19.6239 0 15.5898 0 10.0512C0 4.03411 3.91209 0 9.74597 0C13.6238 0 16.1289 1.64099 17.6731 5.09397V0.888848H26.0465Z" fill="black"/>
<path fill-rule="evenodd" clip-rule="evenodd" d="M46.3587 10.0171C46.3587 7.6581 44.6084 6.01711 41.8631 6.01711C39.1176 6.01711 37.3675 7.69224 37.3675 10.0855C37.3675 12.3761 39.1176 14.0171 41.7944 14.0171C44.5741 14.0171 46.3587 12.3418 46.3587 10.0171ZM54.6976 0.888848V15.9316C54.6976 23.658 49.1726 28 40.113 28C36.0635 28 32.3917 27.0086 30.4013 25.5727V19.5556C31.9455 20.8889 34.9998 22.2222 38.2941 22.2222C43.476 22.2222 46.3242 19.8292 46.3242 15.0426V14.5299C44.7115 18.1198 41.9316 19.6239 38.1912 19.6239C32.2543 19.6239 28.6511 15.5898 28.6511 10.0512C28.6511 4.03411 32.5632 0 38.3971 0C42.2749 0 44.78 1.64099 46.3242 5.09397V0.888848H54.6976Z" fill="black"/>
<path fill-rule="evenodd" clip-rule="evenodd" d="M75.0099 10.0171C75.0099 7.6581 73.2596 6.01711 70.5143 6.01711C67.7689 6.01711 66.0188 7.69224 66.0188 10.0855C66.0188 12.3761 67.7689 14.0171 70.4456 14.0171C73.2253 14.0171 75.0099 12.3418 75.0099 10.0171ZM83.3489 0.888848V15.9316C83.3489 23.658 77.8239 28 68.7642 28C64.7147 28 61.043 27.0086 59.0525 25.5727V19.5556C60.5967 20.8889 63.651 22.2222 66.9454 22.2222C72.1272 22.2222 74.9755 19.8292 74.9755 15.0426V14.5299C73.3627 18.1198 70.5829 19.6239 66.8424 19.6239C60.9056 19.6239 57.3024 15.5898 57.3024 10.0512C57.3024 4.03411 61.2145 0 67.0483 0C70.9262 0 73.4313 1.64099 74.9755 5.09397V0.888848H83.3489Z" fill="black"/>
</svg>
