<svg width="126" height="28" viewBox="0 0 126 28" fill="none" xmlns="http://www.w3.org/2000/svg">
<path fill-rule="evenodd" clip-rule="evenodd" d="M125.692 10.9471V21.5859H118.137V12.674C118.137 10.2996 117.305 8.88106 115.454 8.88106C113.512 8.88106 112.556 10.392 112.556 12.674V21.5859H105.031V12.3964C105.031 10.2687 104.199 8.88106 102.38 8.88106C100.468 8.88106 99.45 10.5154 99.45 13.0131L99.4193 12.9823V21.5859H91.895V3.54625H99.3575V7.77085C100.406 4.28625 102.565 2.74438 105.895 2.74438C109.194 2.74438 111.384 4.50222 112.186 7.67833C113.234 4.28625 115.454 2.74438 118.847 2.74438C123.318 2.74438 125.692 5.64323 125.692 10.9471Z" fill="black"/>
<path fill-rule="evenodd" clip-rule="evenodd" d="M83.0138 12.4582C83.0138 10.022 81.4412 8.41845 78.82 8.41845C76.1681 8.41845 74.5954 10.022 74.5954 12.4582C74.5954 14.8943 76.1681 16.5596 78.82 16.5596C81.4412 16.5596 83.0138 14.8943 83.0138 12.4582ZM67.0403 12.3348C67.0403 6.815 71.3265 2.74451 78.82 2.74451C86.3134 2.74451 90.5689 6.78421 90.5689 12.3348C90.5689 17.8547 86.3134 22.2027 78.82 22.2027C71.3265 22.2027 67.0403 17.8239 67.0403 12.3348Z" fill="black"/>
<path fill-rule="evenodd" clip-rule="evenodd" d="M58.2824 11.7797C58.2824 9.65197 56.7096 8.17183 54.2427 8.17183C51.7756 8.17183 50.203 9.68276 50.203 11.8415C50.203 13.9075 51.7756 15.3876 54.181 15.3876C56.6788 15.3876 58.2824 13.8766 58.2824 11.7797ZM65.7757 3.54623V17.1145C65.7757 24.0836 60.811 28 52.67 28C49.0312 28 45.7318 27.1057 43.9431 25.8106V20.3833C45.3308 21.5859 48.0754 22.7885 51.0356 22.7885C55.692 22.7885 58.2514 20.6301 58.2514 16.3127V15.8502C56.8022 19.0882 54.3043 20.4449 50.9431 20.4449C45.6083 20.4449 42.3705 16.8062 42.3705 11.8105C42.3705 6.3832 45.8859 2.74451 51.1282 2.74451C54.6128 2.74451 56.8638 4.22465 58.2514 7.33917V3.54623H65.7757Z" fill="black"/>
<path fill-rule="evenodd" clip-rule="evenodd" d="M33.9825 15.881C33.9825 14.6785 32.7182 13.8766 30.8371 13.8766C29.1103 13.8766 28.0309 14.7094 28.0309 15.912C28.0309 17.1454 29.1103 17.9472 30.8063 17.9472C32.6565 17.9472 33.9825 17.1454 33.9825 15.881ZM41.291 12.5199V21.5859H33.9825V19.3348C32.7182 21.1851 30.683 22.2026 27.7535 22.2026C23.5595 22.2026 21.1544 19.674 21.1544 16.3436C21.1544 12.8898 23.7755 10.4537 28.1851 10.4537C30.7139 10.4537 32.5332 11.1629 33.9516 12.859C33.7358 9.99113 31.3304 8.57272 28.0309 8.57272C25.78 8.57272 23.683 9.37444 22.0177 10.793V5.14985C23.9605 3.82381 26.705 2.74438 30.4979 2.74438C37.467 2.74438 41.291 6.19819 41.291 12.5199Z" fill="black"/>
<path fill-rule="evenodd" clip-rule="evenodd" d="M0 0V21.586H19.8281V15.2952H7.70919V0H0Z" fill="black"/>
</svg>
